<?xml version="1.0" encoding="UTF-8"?>
<!DOCTYPE svg PUBLIC "-//W3C//DTD SVG 1.1//EN" "http://www.w3.org/Graphics/SVG/1.1/DTD/svg11.dtd">
<!-- Creator: CorelDRAW 2019 (64-Bit) -->
<svg xmlns="http://www.w3.org/2000/svg" xml:space="preserve" width="172.31mm" height="131.42mm" version="1.1" style="shape-rendering:geometricPrecision; text-rendering:geometricPrecision; image-rendering:optimizeQuality; fill-rule:evenodd; clip-rule:evenodd"
viewBox="0 0 1272.97 970.89"
 xmlns:xlink="http://www.w3.org/1999/xlink"
 xmlns:xodm="http://www.corel.com/coreldraw/odm/2003">
 <defs>
  <style type="text/css">
   <![CDATA[
    .fil0 {fill:#FEFEFE}
    .fil2 {fill:#416CB2}
    .fil1 {fill:#34385C}
   ]]>
  </style>
 </defs>
 <g id="Capa_x0020_1">
  <metadata id="CorelCorpID_0Corel-Layer"/>
  <g id="_1919162243008">
   <path class="fil0" d="M1272.97 450.16l0 186.36c0,116.33 -212.83,136.59 -309.26,138.7l0 56.78c-0,124.25 -242.76,138.89 -327.22,138.89 -84.46,0 -327.22,-14.65 -327.22,-138.89l0 -56.78c-96.44,-2.11 -309.26,-22.37 -309.26,-138.7l0 -497.63c0,-124.24 242.76,-138.89 327.22,-138.89 70.56,0 251.56,10.22 309.26,86.01 57.7,-75.79 238.71,-86.01 309.26,-86.01 84.46,0 327.22,14.65 327.22,138.89l0 311.26z"/>
  </g>
  <g id="_1919162243616">
   <path class="fil1" d="M636.48 600.06c-148.87,0 -269.55,-36.36 -269.55,-81.22l0 128.69c0,44.86 120.68,81.23 269.55,81.23 148.87,-0 269.55,-36.37 269.55,-81.23l0 -128.69c0,44.86 -120.68,81.22 -269.55,81.22z"/>
   <path class="fil1" d="M636.48 387.71c-118.95,0 -215.38,-23.88 -215.38,-53.34 0,-29.46 96.43,-53.34 215.38,-53.34 118.95,0 215.38,23.88 215.38,53.34 0,29.46 -96.42,53.34 -215.38,53.34zm0 -134.56c-148.87,0 -269.55,36.37 -269.55,81.22l0 128.69c0,44.86 120.68,81.23 269.55,81.23 148.87,-0 269.55,-36.37 269.55,-81.23l0 -128.69c0,-44.86 -120.68,-81.22 -269.55,-81.22z"/>
   <path class="fil1" d="M636.48 784.53c-148.87,0 -269.55,-36.36 -269.55,-81.22l0 128.69c0,44.86 120.68,81.22 269.55,81.22 148.87,0 269.55,-36.36 269.55,-81.22l0 -128.69c0,44.86 -120.68,81.22 -269.55,81.22z"/>
   <path class="fil2" d="M345.12 404.41l0 128.68c-5.92,0.12 -11.89,0.18 -17.9,0.18 -148.86,-0 -269.55,-36.36 -269.55,-81.22l0 -128.69c0,44.86 120.68,81.22 269.55,81.22 6.01,0 11.98,-0.06 17.9,-0.18z"/>
   <path class="fil2" d="M327.22 192.23c-118.95,0 -215.38,-23.87 -215.38,-53.33 0,-29.46 96.43,-53.33 215.38,-53.33 118.95,-0 215.38,23.88 215.38,53.33 0,29.46 -96.43,53.33 -215.38,53.33zm0 -134.55c-148.86,0 -269.55,36.36 -269.55,81.22l0 128.69c0,44.86 120.68,81.23 269.55,81.23 6.01,0 11.98,-0.06 17.9,-0.18l0 -14.25c0,-22.96 16.5,-39.53 30.34,-49.39 15.52,-11.05 37.1,-20.79 64.13,-28.93 43.32,-13.05 98.08,-21.31 157.17,-23.86l0 -93.3c0,-44.86 -120.68,-81.22 -269.54,-81.22z"/>
   <path class="fil2" d="M345.12 588.88l0 128.69c-5.92,0.12 -11.89,0.18 -17.9,0.18 -148.86,0 -269.55,-36.37 -269.55,-81.23l0 -128.69c0,44.85 120.68,81.23 269.55,81.23 6.01,0 11.98,-0.06 17.9,-0.18z"/>
   <path class="fil2" d="M927.84 404.41l0 128.68c5.92,0.12 11.89,0.18 17.9,0.18 148.86,-0 269.55,-36.36 269.55,-81.22l0 -128.69c0,44.86 -120.68,81.22 -269.55,81.22 -6.02,0 -11.98,-0.06 -17.9,-0.18z"/>
   <path class="fil2" d="M730.36 138.89c0,-29.46 96.43,-53.33 215.38,-53.33 118.95,-0 215.38,23.88 215.38,53.33 0,29.46 -96.43,53.33 -215.38,53.33 -118.95,0 -215.38,-23.87 -215.38,-53.33zm-54.16 0l0 93.3c59.1,2.55 113.85,10.81 157.18,23.86 27.03,8.14 48.61,17.88 64.13,28.93 13.84,9.86 30.34,26.43 30.34,49.39l0 14.25c5.92,0.12 11.89,0.18 17.9,0.18 148.86,0 269.55,-36.36 269.55,-81.23l0 -128.69c0,-44.86 -120.68,-81.22 -269.55,-81.22 -148.87,0 -269.55,36.36 -269.55,81.22z"/>
   <path class="fil2" d="M927.84 588.88l0 128.69c5.92,0.12 11.89,0.18 17.9,0.18 148.86,0 269.55,-36.37 269.55,-81.23l0 -128.69c0,44.85 -120.68,81.23 -269.55,81.23 -6.02,0 -11.98,-0.06 -17.9,-0.18z"/>
  </g>
 </g>
</svg>
